<svg width="1145" height="1417" viewBox="0 0 1145 1417" fill="none" xmlns="http://www.w3.org/2000/svg">
<path d="M232.928 1354.41C231.184 1338.71 217.865 1326.51 215.45 1310.01C213.267 1295.09 214.847 1279.05 214.847 1264C214.847 1241.7 214.847 1219.4 214.847 1197.11C214.847 1134.46 209.324 1073.72 201.187 1011.68C193.42 952.458 188.384 894.522 164.423 839.111C132.16 764.504 101.754 690.767 81.4535 612.101C66.5129 554.206 48.7816 498.774 23.1941 444.756C-1.28319 393.081 5.11357 335.406 5.11357 279.62C5.11357 251.812 14.9942 233.415 45.0916 233.415C100.118 233.415 102.091 306.507 111.989 348.929C123.76 399.375 145.131 447.721 180.695 485.738C197.072 503.244 224.863 513.446 249.2 508.037C261.032 505.408 271.211 488.427 277.125 479.309C292.836 455.088 304.963 432.842 309.67 404.175C321.521 331.991 328.539 259.514 341.612 187.611C347.253 156.582 361.339 127.746 367.527 96.8064C371.049 79.1958 389.952 47.4622 402.885 34.5291C415.792 21.6219 426.542 -10.3967 441.255 13.2343C461.757 46.1613 478.823 92.7692 478.823 132.164C478.823 195.86 476.07 259.212 470.787 322.612C468.277 352.733 467.974 382.396 467.974 412.612C467.974 444.311 502.277 388.596 504.135 385.693C554.262 307.37 570.271 224.746 583.69 134.173C587.938 105.495 599.479 72.7289 616.235 48.7926C629.741 29.4972 633.611 6.9479 660.833 9.21637C686.349 11.3427 691.813 67.5051 696.994 86.159C701.5 102.381 704.441 118.228 706.637 134.976C711.986 175.759 709.974 216.236 706.436 256.919C704.259 281.958 698.06 307.926 694.182 332.857C689.249 364.568 692.173 398.229 692.173 430.291C692.173 470.913 740.909 398.455 746.213 388.907C767.973 349.739 775.551 306.185 790.611 264.352C805.375 223.341 819.562 143.012 878.402 143.012C947.131 143.012 955.796 239.779 952.331 293.482C949.84 332.096 936.92 363.766 920.389 397.746C905.599 428.147 896.037 464.492 888.246 497.39C880.977 528.08 904.999 519.087 929.027 519.087C961.186 519.087 993.086 522.309 1024.05 513.462C1069.28 500.538 1114.83 489.662 1133.34 549.823C1146.47 592.508 1139.76 621.885 1117.06 660.115C1107.64 675.98 1097.02 698.921 1077.29 703.307C1035.51 712.59 993.702 730.705 952.532 743.285C915.674 754.547 873.768 749.815 838.022 763.374C808.729 774.486 781.9 790.827 756.459 809.178C736.252 823.754 716.682 847.474 708.244 871.455C703.328 885.427 700.945 902.029 699.405 916.657C697.003 939.47 686.867 959.725 679.918 981.345C672.962 1002.99 673.696 1026.83 666.86 1049.05C657.092 1080.79 658.513 1115.74 654.204 1148.49C649.052 1187.64 631.827 1222.11 623.668 1260.19C619.449 1279.87 613.236 1299.98 604.583 1318.24C597.382 1333.45 585.271 1344.23 576.658 1358.22C564.934 1377.27 552.593 1396.35 536.68 1412.26" stroke="#FF9595" stroke-width="8" stroke-linecap="round"/>
</svg>
